<svg width="229" height="138" viewBox="0 0 229 138" fill="none" xmlns="http://www.w3.org/2000/svg">
<path d="M111.611 -44.9918C111.06 -42.0982 112.959 -39.3061 115.853 -38.7555C118.746 -38.2048 121.539 -40.1042 122.089 -42.9977C122.64 -45.8913 120.741 -48.6834 117.847 -49.2341C114.953 -49.7848 112.161 -47.8854 111.611 -44.9918ZM101.698 3.1826L101.056 2.41649L101.698 3.1826ZM57.3541 33.9218L56.7707 33.1096L56.7274 33.1407L56.6877 33.1762L57.3541 33.9218ZM64.4037 54.1268L64.0985 55.0791L64.1204 55.0861L64.1425 55.0921L64.4037 54.1268ZM120.851 66.6825L121.047 65.702L121.038 65.7002L121.029 65.6986L120.851 66.6825ZM220.75 87.5073L220.537 88.4844L220.545 88.4861L220.75 87.5073ZM0.402548 133.251C0.240595 133.779 0.537338 134.339 1.06534 134.501L9.66968 137.14C10.1977 137.302 10.757 137.005 10.919 136.477C11.0809 135.949 10.7842 135.39 10.2562 135.228L2.60787 132.882L4.95382 125.233C5.11578 124.705 4.81903 124.146 4.29103 123.984C3.76302 123.822 3.2037 124.119 3.04174 124.647L0.402548 133.251ZM116.091 -43.3439C119.753 -39.0718 121.998 -35.2851 123.01 -31.7417C124.013 -28.2261 123.819 -24.8945 122.503 -21.475C121.176 -18.0279 118.698 -14.4632 115.084 -10.5378C111.473 -6.61573 106.773 -2.38043 101.056 2.41649L102.341 3.9487C108.078 -0.864185 112.856 -5.16508 116.556 -9.18323C120.252 -13.1981 122.915 -16.9777 124.369 -20.7566C125.834 -24.5631 126.061 -28.3393 124.933 -32.2907C123.813 -36.2144 121.374 -40.2543 117.609 -44.6457L116.091 -43.3439ZM101.056 2.41649C92.3494 9.72042 85.2204 14.5648 78.3029 18.9931C71.3911 23.4178 64.6374 27.459 56.7707 33.1096L57.9374 34.734C65.7464 29.1249 72.4148 25.1372 79.3812 20.6775C86.342 16.2215 93.5472 11.3261 102.341 3.9487L101.056 2.41649ZM56.6877 33.1762C53.1809 36.3102 50.8274 38.9164 49.5651 41.1636C48.2829 43.4463 48.0524 45.5125 49.0832 47.3613C50.051 49.0973 52.0213 50.4137 54.5146 51.5767C57.0417 52.7555 60.3087 53.8646 64.0985 55.0791L64.7089 53.1745C60.9093 51.9569 57.757 50.8823 55.36 49.7642C52.9292 48.6303 51.4707 47.5366 50.83 46.3875C50.2523 45.3512 50.2337 44.0572 51.3089 42.143C52.4041 40.1933 54.5535 37.7658 58.0204 34.6674L56.6877 33.1762ZM64.1425 55.0921C85.5421 60.8824 98.0179 63.5589 120.672 67.6665L121.029 65.6986C98.4186 61.599 85.9993 58.9342 64.6649 53.1615L64.1425 55.0921ZM120.654 67.663C160.168 75.5876 182.599 80.2157 220.537 88.4844L220.963 86.5302C183.011 78.2586 160.569 73.6282 121.047 65.702L120.654 67.663ZM220.545 88.4861C222.623 88.9209 224.197 89.3744 225.246 89.8021C225.774 90.0176 226.126 90.2095 226.335 90.3625C226.584 90.5456 226.463 90.5489 226.434 90.3335C226.388 89.9991 226.628 89.8721 226.514 89.9506C226.4 90.0296 226.129 90.1568 225.615 90.289C224.606 90.5483 222.968 90.7517 220.613 90.8424L220.69 92.8409C223.091 92.7484 224.896 92.5386 226.112 92.2261C226.71 92.0724 227.248 91.8741 227.65 91.5968C228.053 91.319 228.517 90.805 228.415 90.0618C228.33 89.4376 227.873 89.0104 227.518 88.75C227.122 88.4595 226.601 88.1951 226.001 87.9503C224.793 87.4574 223.086 86.9745 220.955 86.5285L220.545 88.4861ZM220.613 90.8424C215.858 91.0256 178.695 92.062 133.862 97.7528C89.0657 103.439 36.4623 113.789 0.889919 132.661L1.82725 134.428C37.0539 115.739 89.3412 105.42 134.114 99.7369C178.85 94.0584 215.934 93.0242 220.69 92.8409L220.613 90.8424Z" fill="#E09F1F"/>
</svg>
