<svg width="646" height="270" viewBox="0 0 646 270" fill="none" xmlns="http://www.w3.org/2000/svg">
<rect width="646" height="270" rx="5" fill="#CAE8FF"/>
<path d="M621.759 228.342C618.626 217.135 610.895 209 603.381 209C602.777 209 602.174 209.053 601.587 209.156C601.254 209.215 600.963 209.411 600.782 209.695C600.603 209.981 600.552 210.328 600.643 210.653L602.19 216.186C602.339 216.72 602.854 217.081 603.39 217.057L603.513 217.055C606.3 217.055 611.393 221.231 613.989 230.514C614.092 230.882 614.189 231.259 614.283 231.652C611.368 230.209 607.891 229.876 604.743 230.753C597.64 232.74 593.479 240.134 595.464 247.236C597.074 252.991 602.367 257.011 608.337 257.011C609.553 257.011 610.768 256.843 611.947 256.513C616.631 255.204 620.152 251.315 621.863 245.565C623.408 240.378 623.369 234.101 621.759 228.342Z" fill="white"/>
<path d="M572.41 209C571.808 209 571.204 209.051 570.617 209.155C570.285 209.213 569.993 209.41 569.813 209.694C569.634 209.98 569.583 210.327 569.674 210.652L571.221 216.185C571.37 216.719 571.876 217.08 572.421 217.056L572.543 217.053C575.33 217.053 580.423 221.23 583.019 230.513C583.123 230.883 583.22 231.26 583.313 231.65C580.397 230.208 576.922 229.874 573.773 230.751C566.671 232.739 562.509 240.133 564.496 247.235C566.105 252.989 571.399 257.009 577.369 257.009C578.585 257.009 579.799 256.842 580.979 256.512C585.662 255.202 589.184 251.314 590.895 245.564C592.439 240.377 592.401 234.099 590.791 228.34C587.656 217.134 579.926 209 572.41 209Z" fill="white"/>
<path d="M24.2407 32.3419C27.3743 21.1352 35.1047 13 42.619 13C43.2226 13 43.8256 13.0525 44.413 13.1564C44.7461 13.2149 45.0375 13.4107 45.2177 13.6949C45.3974 13.9809 45.4482 14.3283 45.3568 14.6531L43.81 20.186C43.6608 20.7203 43.1456 21.0815 42.6101 21.057L42.4871 21.0546C39.7004 21.0546 34.6074 25.2312 32.0111 34.5138C31.9084 34.8821 31.8111 35.2588 31.7174 35.6517C34.6319 34.2093 38.1088 33.8756 41.2573 34.7526C48.3603 36.74 52.5213 44.1343 50.5357 51.2361C48.9263 56.9905 43.6327 61.0107 37.6628 61.0107C36.4467 61.0107 35.2325 60.8429 34.0534 60.5128C29.3694 59.2036 25.8478 55.3148 24.1368 49.5651C22.5924 44.3779 22.6312 38.1005 24.2407 32.3419Z" fill="white"/>
<path d="M73.5898 13C74.1921 13 74.7957 13.0513 75.3825 13.1552C75.715 13.2125 76.007 13.4095 76.1867 13.6937C76.3664 13.9797 76.4171 14.3271 76.3264 14.6519L74.779 20.1848C74.6297 20.7191 74.1241 21.0803 73.579 21.0558L73.4572 21.0534C70.6705 21.0534 65.5769 25.23 62.9806 34.5126C62.8773 34.8833 62.78 35.26 62.6869 35.6505C65.6026 34.2081 69.0783 33.8744 72.2268 34.7514C79.3286 36.7388 83.4909 44.1331 81.5041 51.2349C79.8946 56.9893 74.6011 61.0095 68.6311 61.0095C67.4151 61.0095 66.2008 60.8417 65.0211 60.5116C60.3377 59.2024 56.8161 55.3136 55.1045 49.5639C53.5607 44.3767 53.5989 38.0987 55.209 32.3395C58.3444 21.134 66.0736 13 73.5898 13Z" fill="white"/>
</svg>
