<svg width="44" height="44" viewBox="0 0 44 44" fill="none" xmlns="http://www.w3.org/2000/svg">
<path d="M32 22C32.5523 22 33 21.5523 33 21C33 20.4477 32.5523 20 32 20V22ZM11.2929 20.2929C10.9024 20.6834 10.9024 21.3166 11.2929 21.7071L17.6569 28.0711C18.0474 28.4616 18.6805 28.4616 19.0711 28.0711C19.4616 27.6805 19.4616 27.0474 19.0711 26.6569L13.4142 21L19.0711 15.3431C19.4616 14.9526 19.4616 14.3195 19.0711 13.9289C18.6805 13.5384 18.0474 13.5384 17.6569 13.9289L11.2929 20.2929ZM32 20H12V22H32V20Z" fill="white"/>
<circle cx="22" cy="22" r="21" stroke="white" stroke-width="2"/>
</svg>
