<svg width="140" height="114" viewBox="0 0 140 114" fill="none" xmlns="http://www.w3.org/2000/svg">
<path d="M3.00001 47C10.3796 20.6234 28.304 1.00002 46 1.00002C47.4214 1.00002 48.6166 0.755531 50 1.00002C50.7845 1.13772 51.5754 2.33119 52 3.00002C52.4232 3.67306 53.2151 4.23564 53 5.00002L49 18C48.6485 19.2576 47.2611 20.0576 46 20C39.4373 20 27.1143 30.152 21 52C20.7582 52.867 21.2207 53.0755 21 54C27.8636 50.6053 35.5853 49.9359 43 52C59.7274 56.6776 69.676 74.2849 65 91C61.2097 104.544 49.059 114 35 114C32.1362 114 28.7767 113.777 26 113C14.9693 109.919 7.02931 100.533 3.00001 87C-0.637039 74.7911 -0.790283 60.5537 3.00001 47Z" fill="white" fill-opacity="0.37"/>
<path d="M119 1.00002C120.418 1.00002 121.618 0.755527 123 1.00002C123.783 1.13492 124.577 2.33117 125 3.00002C125.423 3.67308 126.214 4.23562 126 5.00002L122 18C121.649 19.2576 120.284 20.0576 119 20C112.437 20 100.114 30.1515 94 52C93.7568 52.8726 94.2193 53.0811 94 54C100.866 50.6052 108.585 49.9359 116 52C132.724 56.6777 142.679 74.2845 138 91C134.21 104.544 122.059 114 108 114C105.136 114 101.778 113.777 99 113C87.971 109.919 80.0306 100.533 76 87C72.3644 74.7908 72.2084 60.5554 76 47C83.3836 20.6255 101.3 1.00002 119 1.00002Z" fill="white" fill-opacity="0.37"/>
</svg>
