<svg width="21" height="20" viewBox="0 0 21 20" fill="none" xmlns="http://www.w3.org/2000/svg">
<g clip-path="url(#clip0_227_91)">
<path fill-rule="evenodd" clip-rule="evenodd" d="M4.78141 19.5406V6.66695H0.289014V19.5405H4.78141V19.5406ZM2.53569 4.90992C4.10179 4.90992 5.07734 3.92055 5.07734 2.6852C5.04773 1.42238 4.10179 0.460938 2.56505 0.460938C1.02807 0.460977 0.0234375 1.42242 0.0234375 2.68523C0.0234375 3.92059 0.998461 4.90996 2.50611 4.90996L2.53569 4.90992ZM7.26778 19.5406C7.26778 19.5406 7.32672 7.87484 7.26778 6.66699H11.7609V8.53395H11.7311C12.3218 7.65543 13.3862 6.36469 15.8097 6.36469C18.7663 6.36469 20.9824 8.20465 20.9824 12.1589V19.5406H16.49V12.6536C16.49 10.9231 15.84 9.74223 14.2138 9.74223C12.9729 9.74223 12.2334 10.5383 11.9086 11.3079C11.7898 11.5818 11.7609 11.9665 11.7609 12.3513V19.5406H7.26778Z" fill="#1B1A20"/>
</g>
<defs>
<clipPath id="clip0_227_91">
<rect width="21" height="20" fill="white"/>
</clipPath>
</defs>
</svg>
