<svg width="78" height="78" viewBox="0 0 78 78" fill="none" xmlns="http://www.w3.org/2000/svg">
<path d="M39 39L53.625 24.375" stroke="white" stroke-width="4" stroke-miterlimit="10" stroke-linecap="round" stroke-linejoin="round"/>
<path d="M73.125 14.625H63.375V4.875L53.625 14.625V24.375H63.375L73.125 14.625Z" stroke="white" stroke-width="3" stroke-miterlimit="10" stroke-linecap="round" stroke-linejoin="round"/>
<path d="M39 53.625C47.0772 53.625 53.625 47.0772 53.625 39C53.625 30.9228 47.0772 24.375 39 24.375C30.9228 24.375 24.375 30.9228 24.375 39C24.375 47.0772 30.9228 53.625 39 53.625Z" stroke="white" stroke-width="3" stroke-miterlimit="10" stroke-linecap="round" stroke-linejoin="round"/>
<path d="M65.8125 21.9375C68.9812 26.8125 70.6875 32.6625 70.6875 39C70.6875 56.55 56.55 70.6875 39 70.6875C21.45 70.6875 7.3125 56.55 7.3125 39C7.3125 21.45 21.45 7.3125 39 7.3125C45.3375 7.3125 51.1875 9.01875 56.0625 12.1875" stroke="white" stroke-width="3" stroke-miterlimit="10" stroke-linecap="round" stroke-linejoin="round"/>
</svg>
