<svg width="82" height="30" viewBox="0 0 82 30" fill="none" xmlns="http://www.w3.org/2000/svg">
<path d="M2 17C0.895432 17 0 16.1046 0 15C0 13.8954 0.895432 13 2 13V17ZM81.4142 13.5858C82.1953 14.3668 82.1953 15.6332 81.4142 16.4142L68.6863 29.1421C67.9052 29.9232 66.6389 29.9232 65.8579 29.1421C65.0768 28.3611 65.0768 27.0948 65.8579 26.3137L77.1716 15L65.8579 3.68629C65.0768 2.90524 65.0768 1.63891 65.8579 0.857864C66.6389 0.0768156 67.9052 0.0768156 68.6863 0.857864L81.4142 13.5858ZM2 13H80V17H2V13Z" fill="#E4E4E4"/>
</svg>
