<svg width="44" height="44" viewBox="0 0 44 44" fill="none" xmlns="http://www.w3.org/2000/svg">
<circle cx="22" cy="22" r="21" transform="matrix(-1 0 0 1 44 0)" fill="white" stroke="white" stroke-width="2"/>
<path d="M12 22C11.4477 22 11 21.5523 11 21C11 20.4477 11.4477 20 12 20V22ZM32.7071 20.2929C33.0976 20.6834 33.0976 21.3166 32.7071 21.7071L26.3431 28.0711C25.9526 28.4616 25.3195 28.4616 24.9289 28.0711C24.5384 27.6805 24.5384 27.0474 24.9289 26.6569L30.5858 21L24.9289 15.3431C24.5384 14.9526 24.5384 14.3195 24.9289 13.9289C25.3195 13.5384 25.9526 13.5384 26.3431 13.9289L32.7071 20.2929ZM12 20H32V22H12V20Z" fill="#0088FF"/>
</svg>
