<svg width="21" height="20" viewBox="0 0 21 20" fill="none" xmlns="http://www.w3.org/2000/svg">
<g clip-path="url(#clip0_227_89)">
<path fill-rule="evenodd" clip-rule="evenodd" d="M21 3.25145C20.2267 3.60321 19.3966 3.83968 18.5257 3.94791C19.4151 3.40085 20.0982 2.53615 20.4207 1.50321C19.5868 2.01027 18.6628 2.3785 17.682 2.57615C16.8976 1.71615 15.7759 1.17969 14.5382 1.17969C12.1565 1.17969 10.227 3.1585 10.227 5.5985C10.227 5.94556 10.2665 6.28203 10.3382 6.60556C6.75828 6.42085 3.57989 4.66321 1.45518 1.98909C1.08582 2.64086 0.872112 3.40086 0.872112 4.21027C0.872112 5.74321 1.86776 7.09379 3.024 7.88792C2.31742 7.86437 1.30571 7.66437 1.30571 7.33261V7.39145C1.30571 9.53027 2.55707 11.315 4.52735 11.7232C4.16665 11.822 3.67007 11.8773 3.276 11.8773C2.99806 11.8773 2.66947 11.8491 2.40511 11.7961C2.95483 13.5514 4.51747 14.8291 6.40253 14.8667C4.92758 16.0491 3.05489 16.7561 1.03642 16.7561C0.688056 16.7561 0.336 16.735 0 16.695C1.90853 17.9467 4.16911 18.6797 6.60264 18.6797C14.532 18.6797 18.8642 11.9491 18.8642 6.11145C18.8642 5.91968 18.8592 5.72674 18.8493 5.53732C19.6918 4.91497 20.4231 4.13732 21 3.25145Z" fill="#1B1A20"/>
</g>
<defs>
<clipPath id="clip0_227_89">
<rect width="21" height="20" fill="white"/>
</clipPath>
</defs>
</svg>
