<svg width="78" height="78" viewBox="0 0 78 78" fill="none" xmlns="http://www.w3.org/2000/svg">
<path d="M39.945 34.1703H39.2286H24.0751L11.9852 50.7972L39.719 78L40.8615 76.8789L67.4502 50.7972L55.3627 34.1703H39.945ZM52.6825 37.4385L50.4497 47.3574L42.5493 37.4385H52.6825ZM39.607 38.3835L48.2025 49.169H31.1949L39.607 38.3835ZM36.6768 37.4385L28.9738 47.3171V47.3195L26.7553 37.4386H36.6768V37.4385ZM24.2513 39.4808L26.4294 49.169H17.2054L24.2513 39.4808ZM27.3077 52.0635L34.9344 68.7332L17.9385 52.0635H27.3077ZM39.719 72.2372L30.4878 52.0635H48.9476L39.719 72.2372ZM44.501 68.7332L52.1278 52.0635H61.4945L44.501 68.7332ZM53.0062 49.169L55.1867 39.4808L62.2302 49.169H53.0062Z" fill="white"/>
<path d="M76.3575 27.7122C72.4109 27.7122 71.047 26.722 70.2781 25.9556C69.5139 25.1867 68.5214 23.8227 68.5214 19.8761C68.5214 19.7262 68.5071 19.3001 68.0358 19.3001C67.5668 19.3001 67.5501 19.7262 67.5501 19.8761C67.5501 23.8227 66.5574 25.1867 65.791 25.9556C65.0221 26.722 63.6557 27.7122 59.7138 27.7122C59.5615 27.7122 59.1378 27.7288 59.1378 28.2002C59.1378 28.6691 59.5615 28.6859 59.7138 28.6859C63.6557 28.6859 65.0221 29.6785 65.791 30.445C66.5574 31.2114 67.5501 32.5778 67.5501 36.5244C67.5501 36.6767 67.5667 37.0981 68.0358 37.0981C68.5071 37.0981 68.5214 36.6767 68.5214 36.5244C68.5214 32.5778 69.5141 31.2114 70.2781 30.445C71.047 29.6761 72.4109 28.6859 76.3575 28.6859C76.5099 28.6859 76.9335 28.6715 76.9335 28.1979C76.9335 27.7313 76.5099 27.7122 76.3575 27.7122Z" fill="white"/>
<path d="M17.7904 16.8968C23.2152 16.8968 25.091 18.2632 26.1455 19.3153C27.2 20.3698 28.5615 22.2479 28.5615 27.6727C28.5615 27.8797 28.5902 28.4606 29.2327 28.4606C29.8802 28.4606 29.8993 27.8797 29.8993 27.6727C29.8993 22.2479 31.2632 20.3696 32.3177 19.3153C33.3698 18.2607 35.2456 16.8968 40.6728 16.8968C40.8799 16.8968 41.4632 16.8778 41.4632 16.2303C41.4632 15.5876 40.88 15.5591 40.6728 15.5591C35.2456 15.5591 33.3698 14.1974 32.3177 13.1453C31.2632 12.0884 29.8993 10.2152 29.8993 4.79021C29.8992 4.58317 29.8802 4 29.2327 4C28.59 4 28.5615 4.58317 28.5615 4.79036C28.5615 10.2152 27.1999 12.0885 26.1455 13.1455C25.091 14.1976 23.2153 15.5592 17.7904 15.5592C17.5833 15.5592 17 15.5854 17 16.2305C17 16.873 17.5832 16.8968 17.7904 16.8968Z" fill="white"/>
<path d="M17.4362 29.8594C17.4362 29.4286 17.0457 29.4118 16.9077 29.4118C13.2777 29.4118 12.0208 28.5002 11.3162 27.7956C10.6117 27.0886 9.69759 25.8342 9.69759 22.2041C9.69759 22.0661 9.68327 21.6756 9.25001 21.6756C8.82146 21.6756 8.80242 22.0661 8.80242 22.2041C8.80242 25.8342 7.8908 27.0887 7.18621 27.7956C6.47918 28.5002 5.22234 29.4118 1.59473 29.4118C1.45443 29.4119 1.06641 29.4286 1.06641 29.8594C1.06641 30.2902 1.45443 30.307 1.59489 30.307C5.22265 30.307 6.47948 31.221 7.18636 31.9256C7.89095 32.6302 8.80257 33.887 8.80257 37.5195C8.80257 37.6576 8.82162 38.0456 9.25016 38.0456C9.68343 38.0456 9.69775 37.6576 9.69775 37.5195C9.69775 33.887 10.6118 32.6302 11.3164 31.9256C12.021 31.2186 13.2778 30.307 16.9079 30.307C17.0459 30.307 17.4362 30.2926 17.4362 29.8594Z" fill="white"/>
</svg>
