<svg width="78" height="78" viewBox="0 0 78 78" fill="none" xmlns="http://www.w3.org/2000/svg">
<g clip-path="url(#clip0_27_208)">
<path d="M76.6869 34.9296C73.0876 29.8498 59.734 13.2764 38.9996 13.2764C18.2645 13.2764 4.91205 29.8498 1.31352 34.9292C-0.437585 37.4014 -0.437965 40.5971 1.31313 43.0712C4.91205 48.1506 18.2668 64.724 38.9996 64.724C59.7383 64.724 73.088 48.1509 76.6853 43.072C78.438 40.5998 78.438 37.4037 76.6869 34.9296ZM22.4359 27.2887C23.1106 25.4042 24.1153 23.6402 25.3859 22.0869C26.3414 20.9192 27.6085 20.0717 29.0507 19.6295C32.1181 18.6884 35.4381 18.1229 38.9992 18.1229C42.5603 18.1229 45.8808 18.6884 48.9473 19.6295C50.3837 20.0698 51.6614 20.9243 52.6122 22.0865C53.8836 23.6398 54.8878 25.4042 55.5621 27.2887C56.2415 29.1853 56.5863 31.1805 56.5863 33.2182C56.5863 42.9152 48.697 50.8045 38.9988 50.8045C29.3007 50.8045 21.4114 42.9152 21.4114 33.2182C21.4122 31.1801 21.7569 29.1853 22.4359 27.2887ZM72.7311 40.2698C69.473 44.8695 57.4123 59.8775 38.9996 59.8775C20.5916 59.8775 8.52657 44.8691 5.26812 40.2706C4.71315 39.4867 4.71315 38.5133 5.26812 37.7309C7.05159 35.2131 11.4777 29.5803 18.1338 24.9943C18.0465 25.2139 17.9541 25.4319 17.8737 25.6542C17.006 28.0765 16.566 30.6216 16.566 33.2182C16.566 45.5875 26.63 55.6506 38.9996 55.6506C51.3696 55.6506 61.4332 45.5875 61.4332 33.2182C61.4332 30.622 60.9929 28.0765 60.1251 25.6538C60.0452 25.4319 59.9524 25.2139 59.8654 24.9943C66.5211 29.5803 70.948 35.2139 72.7315 37.7309C73.2865 38.514 73.2865 39.4863 72.7311 40.2698Z" fill="white"/>
<path d="M39.0796 45.3718C45.7193 45.3718 51.1013 39.9894 51.1013 33.3501C51.1013 26.7115 45.7193 21.3283 39.0796 21.3283C37.1881 21.3283 35.3988 21.7667 33.8064 22.5455C36.4525 22.7565 38.5332 24.9639 38.5332 27.6635C38.5332 30.5011 36.2326 32.8029 33.393 32.8029C30.6946 32.8029 28.4864 30.7211 28.275 28.078C27.4962 29.67 27.0582 31.4589 27.0582 33.3504C27.0578 39.9894 32.441 45.3718 39.0796 45.3718Z" fill="white"/>
</g>
<defs>
<clipPath id="clip0_27_208">
<rect width="78" height="78" fill="white"/>
</clipPath>
</defs>
</svg>
