<svg width="259" height="244" viewBox="0 0 259 244" fill="none" xmlns="http://www.w3.org/2000/svg">
<path d="M88.3929 8C88.3929 12.4183 91.9747 16 96.3929 16C100.811 16 104.393 12.4183 104.393 8C104.393 3.58172 100.811 0 96.3929 0C91.9747 0 88.3929 3.58172 88.3929 8ZM89.1095 67.2145L90.1536 68.2915L90.2169 68.2301L90.2726 68.1617L89.1095 67.2145ZM43.6951 113.556L42.589 112.543L42.4928 112.648L42.418 112.769L43.6951 113.556ZM56.5482 135.869L56.1753 137.322L56.3026 137.355L56.4337 137.365L56.5482 135.869ZM125.961 138.015L125.976 136.515L125.962 136.514L125.948 136.515L125.961 138.015ZM248.494 140.16L248.454 141.66L248.467 141.66L248.494 140.16ZM0 244L17.1955 241.923L6.79914 228.07L0 244ZM95.4553 9.17081C100.717 13.3849 104.181 17.3271 106.143 21.2386C108.087 25.1117 108.598 29.0315 107.824 33.3131C107.042 37.6379 104.939 42.3762 101.566 47.8175C98.1971 53.2531 93.6128 59.3091 87.9464 66.2674L90.2726 68.1617C95.9626 61.1745 100.644 54.9999 104.116 49.398C107.585 43.8016 109.899 38.6954 110.776 33.8469C111.66 28.9551 111.072 24.3727 108.825 19.8932C106.596 15.4519 102.777 11.1908 97.3306 6.82919L95.4553 9.17081ZM88.0654 66.1376C67.9916 85.5983 57.8831 95.8474 42.589 112.543L44.8011 114.57C60.0437 97.9301 70.1081 87.7248 90.1536 68.2915L88.0654 66.1376ZM42.418 112.769C40.2435 116.298 38.83 119.336 38.279 121.996C37.7168 124.71 38.0442 127.092 39.4102 129.147C40.7345 131.138 42.9163 132.639 45.681 133.896C48.4587 135.159 51.9837 136.246 56.1753 137.322L56.9211 134.416C52.7757 133.352 49.4556 132.316 46.9228 131.165C44.3771 130.007 42.7829 128.801 41.9084 127.486C41.0755 126.233 40.7811 124.707 41.2167 122.604C41.6634 120.448 42.8672 117.759 44.9721 114.343L42.418 112.769ZM56.4337 137.365C82.9902 139.398 98.3185 139.755 125.974 139.514L125.948 136.515C98.3593 136.755 83.118 136.399 56.6627 134.373L56.4337 137.365ZM125.946 139.514C174.341 139.994 201.841 140.419 248.454 141.659L248.534 138.661C201.9 137.419 174.383 136.994 125.976 136.515L125.946 139.514ZM248.467 141.66C251.007 141.706 252.946 141.888 254.253 142.152C254.913 142.286 255.345 142.428 255.593 142.547C255.91 142.698 255.673 142.683 255.55 142.317C255.37 141.781 255.708 141.465 255.629 141.546C255.548 141.628 255.295 141.821 254.729 142.088C253.626 142.608 251.765 143.212 249.013 143.848L249.689 146.771C252.507 146.119 254.614 145.459 256.008 144.802C256.691 144.48 257.319 144.106 257.767 143.65C258.216 143.194 258.732 142.37 258.394 141.363C258.114 140.526 257.383 140.077 256.887 139.84C256.324 139.571 255.623 139.369 254.849 139.212C253.287 138.896 251.144 138.708 248.521 138.66L248.467 141.66ZM249.013 143.848C243.698 145.076 203.717 153.872 155.197 169.301C106.715 184.719 49.5483 206.809 9.92541 234.677L11.6513 237.131C50.8799 209.54 107.678 187.561 156.107 172.16C204.498 156.771 244.372 147.999 249.689 146.771L249.013 143.848Z" fill="white"/>
</svg>
